<svg viewBox="0 0 24 24" fill="none" xmlns="http://www.w3.org/2000/svg">
    <path fill-rule="evenodd" clip-rule="evenodd"
        d="M2.41 14.915A10.014 10.014 0 0 0 11.99 22C17.517 22 22 17.523 22 12S17.518 2 11.99 2C6.683 2 2.342 6.123 2 11.336l.007.01v-.004l5.38 2.211a2.748 2.748 0 0 1 1.641-.454l2.45-3.554c-.002-.016-.002-.033-.002-.05a3.808 3.808 0 0 1 3.803-3.804 3.807 3.807 0 0 1 3.802 3.804 3.808 3.808 0 0 1-3.802 3.806l-.086-.002-3.505 2.502a2.778 2.778 0 0 1-3.844 2.637 2.771 2.771 0 0 1-1.64-1.96L2.41 14.916zm5.678 2.938a2.144 2.144 0 0 0 2.804-2.794 2.125 2.125 0 0 0-1.156-1.162 2.13 2.13 0 0 0-1.58-.024l1.28.53a1.577 1.577 0 1 1-1.213 2.912l-1.238-.513c.22.458.6.841 1.103 1.05zm4.657-8.358a2.537 2.537 0 0 0 2.534 2.536 2.538 2.538 0 0 0 2.534-2.536 2.538 2.538 0 0 0-2.534-2.535 2.537 2.537 0 0 0-2.534 2.535zm2.538-1.909a1.904 1.904 0 0 0 0 3.81 1.904 1.904 0 0 0 0-3.81z"
        fill="currentColor"></path>
</svg>